<svg width="23" height="32" viewBox="0 0 23 32" fill="none" xmlns="http://www.w3.org/2000/svg">
<path d="M20.8246 5.37132C21.1541 6.00999 21.0504 6.78077 20.8387 7.44428C20.7781 7.63014 20.7129 7.81439 20.6489 7.99905L20.6183 8.08549C20.4827 8.46878 20.3394 8.83784 20.144 9.19484C20.0876 9.29645 20.0346 9.39927 19.9834 9.50404C19.97 9.53127 19.9565 9.5585 19.943 9.58572C19.9048 9.71553 19.9473 9.81246 19.9904 9.93648C20.1498 10.4484 19.9535 11.0214 19.7268 11.4812C19.5781 11.7498 19.378 11.99 19.184 12.2272C19.1664 12.2479 19.1496 12.2701 19.1317 12.2919C19.1157 12.3119 19.1001 12.3307 19.0841 12.3506C19.0023 12.4804 19.0369 12.6577 19.041 12.805C19.0379 13.0381 18.9583 13.2416 18.8826 13.4592C18.8648 13.5131 18.8648 13.5131 18.8467 13.5681C18.6179 14.2293 18.1868 14.8076 17.805 15.3879C17.7516 15.4701 17.6986 15.5512 17.6456 15.6322C17.3767 16.0452 17.1059 16.4561 16.8227 16.8589C16.7299 16.9911 16.647 17.1205 16.5764 17.2657C16.6047 17.2655 16.634 17.2656 16.6646 17.2662C16.7729 17.2674 16.8809 17.2697 16.9903 17.2713C17.0372 17.2726 17.083 17.2734 17.1303 17.2735C17.7068 17.2791 17.7068 17.2791 17.9498 17.4495C18.1144 17.628 18.2176 17.8065 18.2452 18.0505C18.2132 18.2567 18.1592 18.4167 17.9994 18.5573C17.9353 18.6012 17.8748 18.631 17.8037 18.6621C17.5605 18.7706 17.3492 18.9339 17.132 19.0887C17.064 19.1363 16.9959 19.1839 16.9275 19.2326C16.4471 19.5669 15.9816 19.9243 15.5339 20.3034C15.5138 20.3206 15.4932 20.339 15.4719 20.3557C14.6561 21.0449 13.9206 21.7931 13.2161 22.5945C13.2013 22.611 13.1876 22.6279 13.1728 22.6445C13.0236 22.8131 12.8759 22.9809 12.729 23.1503C12.43 23.4963 12.1243 23.8322 11.7983 24.1533C11.7844 24.1675 11.7688 24.1825 11.7544 24.1979C11.207 24.7363 10.6123 25.1875 9.91966 25.5247C9.89308 25.5384 9.86651 25.552 9.83879 25.5652C9.48298 25.7427 9.13159 25.9076 8.75101 26.0212C8.68923 26.0403 8.62899 26.0587 8.56721 26.0778C7.89565 26.2869 7.18788 26.3884 6.48542 26.3882C6.461 26.3885 6.43657 26.3888 6.41174 26.3903C6.33853 26.3874 6.33853 26.3874 6.26626 26.3747C6.18255 26.3617 6.12801 26.3603 6.04595 26.3825C5.92549 26.4806 5.83367 26.5992 5.73909 26.7218C5.71176 26.7557 5.68443 26.7895 5.6571 26.8234C5.57981 26.9189 5.50325 27.0159 5.4267 27.113C4.98035 27.673 4.98035 27.673 4.5706 27.7533C4.33636 27.7715 4.14117 27.7191 3.92474 27.64L3.84057 27.6102C2.93476 27.2732 2.93476 27.2732 2.72689 26.8913C2.6119 26.6266 2.63432 26.4222 2.73382 26.1553C2.85788 25.8806 3.04931 25.636 3.22207 25.39C3.30942 25.2661 3.39563 25.1417 3.48225 25.0162C3.45021 24.9947 3.41817 24.9731 3.38539 24.95C2.68456 24.3988 2.42303 23.4451 2.31552 22.6021C2.03843 20.1367 3.52078 17.5667 4.98142 15.702C4.99629 15.6817 5.0127 15.6606 5.02911 15.6396C5.10567 15.5425 5.18263 15.4443 5.26032 15.3477C6.18971 14.1817 6.3839 12.7609 6.39869 11.3009C6.40555 11.0499 6.55256 10.8767 6.71343 10.6969C6.85345 10.5723 7.03904 10.5433 7.22359 10.5497C7.46046 10.5964 7.62913 10.7418 7.81107 10.8932C7.84003 10.9162 7.86859 10.9404 7.89869 10.9638C8.11184 11.139 8.32153 11.3169 8.52497 11.5014C8.53797 11.4792 8.53797 11.4792 8.55097 11.4569C9.07931 10.5854 10.2714 9.41133 11.2775 9.14269C11.5036 9.09339 11.5036 9.09339 11.6206 9.09895C11.7373 9.08391 11.8002 9.02172 11.8836 8.94501C11.9023 8.92856 11.9193 8.91285 11.938 8.8964C12.1265 8.72508 12.3046 8.54363 12.485 8.363C13.0435 7.80426 13.5511 7.37854 14.3682 7.3297C14.4227 7.33107 14.4227 7.33107 14.4807 7.35159C14.4947 7.33735 14.5083 7.32424 14.5234 7.3104C15.2888 6.57914 16.2454 5.78499 17.3415 5.71071C17.3679 5.70852 17.3942 5.70633 17.4218 5.70454C17.4462 5.70422 17.4699 5.70236 17.4943 5.70204C17.5759 5.68484 17.5998 5.64978 17.6585 5.59247C17.6951 5.56834 17.7337 5.54615 17.7719 5.5251C17.8043 5.50584 17.8043 5.50584 17.8374 5.48813C17.8613 5.47483 17.8837 5.46227 17.9076 5.44897C18.0668 5.36067 18.2226 5.27118 18.3758 5.17436C18.8736 4.87056 19.3803 4.64284 19.9744 4.68151C20.3742 4.79603 20.6233 5.00707 20.8246 5.37132ZM19.3489 6.09192C19.1163 6.20673 18.8939 6.3328 18.6749 6.47417C18.2769 6.73133 17.8813 6.97406 17.395 6.98504C16.7187 7.012 16.0797 7.63566 15.5984 8.05924C15.2203 8.39005 14.8664 8.61292 14.3506 8.6096C14.0425 8.63756 13.8981 8.77078 13.6821 8.98357C13.6526 9.0128 13.6219 9.04162 13.5912 9.07044C13.4499 9.206 13.3104 9.34348 13.1709 9.48097C12.315 10.3197 12.315 10.3197 11.74 10.3787C11.6996 10.3772 11.6996 10.3772 11.6588 10.3768C11.0353 10.4391 10.2841 11.3763 9.89136 11.7992C9.87268 11.8194 9.85399 11.8397 9.8349 11.8611C9.57715 12.1231 9.57715 12.1231 9.46421 12.4568C9.51027 12.5256 9.51027 12.5256 9.57742 12.589C9.72608 12.744 9.84516 12.9102 9.96166 13.0909C9.98987 13.1342 9.98987 13.1342 10.0177 13.1786C10.8862 14.5581 10.9958 16.249 10.8711 17.8352C10.9838 17.8239 11.0896 17.7999 11.1996 17.771C11.2372 17.7625 11.2751 17.7529 11.3146 17.7426C11.3441 17.7351 11.3441 17.7351 11.3748 17.728C11.806 17.6195 12.2373 17.5289 12.6759 17.4575C12.7127 17.4513 12.7494 17.4451 12.7873 17.4393C14.0213 17.2321 14.0213 17.2321 14.6349 17.2483C14.6563 17.2494 14.678 17.2495 14.6994 17.2506C14.7524 17.2527 14.8061 17.2564 14.8587 17.2596C15.0547 17.2266 15.1892 16.9619 15.2973 16.8082C15.3165 16.783 15.3345 16.7574 15.3529 16.7306C15.4132 16.647 15.472 16.5641 15.5311 16.4801C15.5515 16.4515 15.5723 16.4217 15.593 16.3919C16.1154 15.6566 16.6065 14.9051 17.0904 14.1447C17.1081 14.1164 17.127 14.0885 17.145 14.0591C17.1969 13.9776 17.2472 13.8968 17.2987 13.8165C17.3136 13.7924 17.3297 13.7686 17.345 13.7433C17.538 13.4366 17.8292 12.9715 17.7582 12.5932C17.7518 12.5717 17.7442 12.5498 17.7377 12.5283C17.6743 12.2986 17.7634 12.0614 17.8663 11.8572C17.9665 11.6968 18.0875 11.5502 18.2062 11.4028C18.2527 11.3438 18.2976 11.2854 18.3437 11.2275C18.3718 11.1914 18.4011 11.1557 18.4292 11.1196C18.6151 10.8871 18.7835 10.5884 18.7643 10.2809C18.7497 10.1772 18.7237 10.0771 18.6954 9.97625C18.5552 9.43911 18.7927 8.99585 19.0498 8.53657C19.2089 8.24604 19.3243 7.94135 19.4334 7.62931L19.4564 7.56448C19.7348 6.79536 19.7348 6.79536 19.7121 5.99135C19.5938 5.94951 19.4581 6.04355 19.3489 6.09192ZM7.63892 12.4331C7.60006 12.5973 7.57345 12.7593 7.55245 12.9272C7.38798 14.2677 6.93019 15.3087 6.09138 16.3596C5.7266 16.8193 5.37062 17.2794 5.05968 17.7786C5.03804 17.8144 5.03804 17.8144 5.01486 17.851C4.77662 18.2351 4.57431 18.6371 4.38257 19.0453C4.37024 19.0729 4.35717 19.099 4.3437 19.1262C4.20858 19.4214 4.10076 19.7262 3.99255 20.0321L3.96237 20.1174C3.8103 20.5474 3.67054 20.9714 3.60619 21.4247C3.60229 21.4502 3.59953 21.4761 3.59523 21.5027C3.49359 22.264 3.5686 23.1735 4.04203 23.8068C4.53015 24.3877 5.26719 24.8365 5.99166 25.0531C6.00492 25.0373 6.01818 25.0215 6.03071 25.0042C6.0498 24.9828 6.06775 24.961 6.0857 24.9392C6.10365 24.9174 6.12006 24.8963 6.13801 24.8745C6.2025 24.8116 6.25934 24.7703 6.33499 24.7228C6.46937 24.636 6.56848 24.5366 6.67296 24.4149C6.69051 24.3942 6.70959 24.3729 6.72795 24.3499C7.50125 23.4372 8.15763 22.3666 8.63966 21.2715C8.64958 21.2507 8.65836 21.2295 8.66828 21.2087C9.39217 19.5529 9.81924 17.7268 9.61721 15.9175C9.61388 15.8907 9.61055 15.8639 9.60836 15.8376C9.49399 14.8476 9.15849 13.9547 8.47396 13.2199C8.45898 13.2044 8.4444 13.1877 8.42983 13.171C8.07436 12.7433 8.07435 12.7433 7.63892 12.4331ZM13.8963 18.5442C13.8309 18.5518 13.7671 18.5587 13.7021 18.5651C13.2062 18.6213 12.7192 18.7063 12.2305 18.8073C12.1849 18.8168 12.1849 18.8168 12.1382 18.8258C11.7514 18.9065 11.3703 19.0034 10.9985 19.1393C10.9255 19.1647 10.9255 19.1647 10.8431 19.1842C10.7565 19.2085 10.6931 19.2322 10.6204 19.2858C10.5517 19.4112 10.5268 19.5432 10.4967 19.6823C10.4761 19.7659 10.454 19.8502 10.4323 19.9334C10.4269 19.9558 10.4215 19.9782 10.415 20.0002C10.3452 20.2737 10.2518 20.5375 10.1565 20.8033L10.13 20.8784C9.63348 22.2639 8.906 23.5935 7.99165 24.7493C7.93117 24.8226 7.93117 24.8226 7.93813 24.9224C9.74258 24.4844 10.915 23.3008 12.0963 21.9437C13.1396 20.7451 14.2595 19.6594 15.5148 18.6828C15.5786 18.6324 15.6414 18.5817 15.7038 18.5283C15.2102 18.3536 14.4064 18.4841 13.8963 18.5442ZM4.52306 25.7785C4.45969 25.8636 4.39746 25.949 4.3341 26.0341C4.3071 26.0706 4.3071 26.0706 4.27971 26.1083C4.25425 26.1441 4.25425 26.1441 4.22766 26.1795C4.21238 26.2009 4.19598 26.222 4.1803 26.2446C4.14004 26.2969 4.14004 26.2969 4.12254 26.3573L4.32613 26.4293C4.39899 26.3463 4.47226 26.2621 4.54513 26.1792L4.59657 26.1206C4.66207 26.0439 4.71237 25.9849 4.74616 25.8894C4.67204 25.8529 4.59946 25.8157 4.52306 25.7785Z" fill="white"/>
<path d="M6.3998 18.1857C6.53391 18.3854 6.5975 18.5602 6.56449 18.8019C6.52922 18.8944 6.52922 18.8944 6.47709 18.9911C6.46798 19.0096 6.45886 19.0282 6.44861 19.0463C6.41343 19.1132 6.37825 19.1801 6.34193 19.2466C6.29174 19.3414 6.24156 19.4363 6.19177 19.53C6.157 19.5958 6.12262 19.6604 6.08825 19.725C5.56995 20.6947 5.25695 21.7677 5.58166 22.8539C5.65779 23.0946 5.76038 23.3074 5.90617 23.5139C5.98289 23.6587 5.99994 23.7915 5.96837 23.953C5.91043 24.1386 5.83284 24.2711 5.67168 24.383C5.49656 24.4657 5.31111 24.4871 5.12316 24.436C4.75351 24.2835 4.59298 23.9016 4.44893 23.5564C3.93939 22.2871 4.1254 20.9581 4.63362 19.7239C4.767 19.4192 4.92306 19.1263 5.07912 18.8334C5.09648 18.8025 5.11269 18.7711 5.12891 18.7397C5.17394 18.6558 5.21897 18.5719 5.26473 18.4896C5.27699 18.4658 5.29039 18.4424 5.30306 18.4174C5.41462 18.2214 5.55062 18.0865 5.76717 18.0134C5.99332 17.9782 6.21567 18.0515 6.3998 18.1857Z" fill="white"/>
<path d="M14.5794 11.5327C14.7175 11.7466 14.8244 11.9546 14.7692 12.2153C14.7075 12.4225 14.6089 12.5566 14.4185 12.6607C14.2504 12.7343 14.105 12.7546 13.9276 12.6918C13.7728 12.623 13.6476 12.5391 13.5654 12.3845C13.4844 12.2804 13.3763 12.2243 13.2654 12.1543C13.072 12.0283 12.9175 11.9187 12.8481 11.6881C12.8089 11.495 12.8477 11.3347 12.9371 11.1616C13.0541 11.0008 13.2079 10.9132 13.4007 10.8675C13.8023 10.8393 14.3389 11.2249 14.5794 11.5327Z" fill="white"/>
<path d="M17.7904 7.92217C17.8386 7.95586 17.8386 7.95586 17.888 7.98996C18.1459 8.17591 18.3416 8.34622 18.4083 8.66796C18.4178 8.83641 18.3408 9.01777 18.2441 9.15377C18.1076 9.29361 17.9622 9.35735 17.7665 9.37515C17.5617 9.35004 17.4078 9.27131 17.2409 9.1534C17.2247 9.14128 17.2074 9.12875 17.189 9.11582C17.1532 9.09037 17.1174 9.06491 17.082 9.03832C17.0266 8.99954 16.9724 8.96115 16.917 8.92237C16.5106 8.63145 16.5106 8.63145 16.41 8.39114C16.3722 8.1615 16.41 7.97142 16.5452 7.77737C16.6698 7.64228 16.8192 7.58891 16.998 7.55362C17.3043 7.55959 17.5524 7.74841 17.7904 7.92217Z" fill="white"/>
<path d="M15.2677 15.0534C15.2873 15.0705 15.3064 15.0888 15.3259 15.106C15.4861 15.2573 15.5706 15.4164 15.5921 15.6377C15.5583 15.8779 15.4761 16.0344 15.2868 16.1862C15.1207 16.2721 14.9519 16.3007 14.7675 16.2649C14.5937 16.1919 14.4661 16.0968 14.328 15.9699C14.3006 15.9462 14.3006 15.9462 14.272 15.922C14.1335 15.7962 14.024 15.6717 13.9789 15.4843C13.9716 15.2808 13.9958 15.1218 14.1179 14.9538C14.2711 14.7994 14.414 14.7246 14.6307 14.709C14.8855 14.7121 15.093 14.8854 15.2677 15.0534Z" fill="white"/>
</svg>
