<svg width="45" height="46" viewBox="0 0 45 46" fill="none" xmlns="http://www.w3.org/2000/svg">
<rect y="0.5" width="45" height="45" rx="22.5" fill="#D50D0D"/>
<path d="M31.8246 12.3713C32.1541 13.01 32.0504 13.7808 31.8387 14.4443C31.7781 14.6301 31.7129 14.8144 31.6489 14.999L31.6183 15.0855C31.4827 15.4688 31.3394 15.8378 31.144 16.1948C31.0876 16.2965 31.0346 16.3993 30.9834 16.504C30.97 16.5313 30.9565 16.5585 30.943 16.5857C30.9048 16.7155 30.9473 16.8125 30.9904 16.9365C31.1498 17.4484 30.9535 18.0214 30.7268 18.4812C30.5781 18.7498 30.378 18.99 30.184 19.2272C30.1664 19.2479 30.1496 19.2701 30.1317 19.2919C30.1157 19.3119 30.1001 19.3307 30.0841 19.3506C30.0023 19.4804 30.0369 19.6577 30.041 19.805C30.0379 20.0381 29.9583 20.2416 29.8826 20.4592C29.8648 20.5131 29.8648 20.5131 29.8467 20.5681C29.6179 21.2293 29.1868 21.8076 28.805 22.3879C28.7516 22.4701 28.6986 22.5512 28.6456 22.6322C28.3767 23.0452 28.1059 23.4561 27.8227 23.8589C27.7299 23.9911 27.647 24.1205 27.5764 24.2657C27.6047 24.2655 27.634 24.2656 27.6646 24.2662C27.7729 24.2674 27.8809 24.2697 27.9903 24.2713C28.0372 24.2726 28.083 24.2734 28.1303 24.2735C28.7068 24.2791 28.7068 24.2791 28.9498 24.4495C29.1144 24.628 29.2176 24.8065 29.2452 25.0505C29.2132 25.2567 29.1592 25.4167 28.9994 25.5573C28.9353 25.6012 28.8748 25.631 28.8037 25.6621C28.5605 25.7706 28.3492 25.9339 28.132 26.0887C28.064 26.1363 27.9959 26.1839 27.9275 26.2326C27.4471 26.5669 26.9816 26.9243 26.5339 27.3034C26.5138 27.3206 26.4932 27.339 26.4719 27.3557C25.6561 28.0449 24.9206 28.7931 24.2161 29.5945C24.2013 29.611 24.1876 29.6279 24.1728 29.6445C24.0236 29.8131 23.8759 29.9809 23.729 30.1503C23.43 30.4963 23.1243 30.8322 22.7983 31.1533C22.7844 31.1675 22.7688 31.1825 22.7544 31.1979C22.207 31.7363 21.6123 32.1875 20.9197 32.5247C20.8931 32.5384 20.8665 32.552 20.8388 32.5652C20.483 32.7427 20.1316 32.9076 19.751 33.0212C19.6892 33.0403 19.629 33.0587 19.5672 33.0778C18.8956 33.2869 18.1879 33.3884 17.4854 33.3882C17.461 33.3885 17.4366 33.3888 17.4117 33.3903C17.3385 33.3874 17.3385 33.3874 17.2663 33.3747C17.1826 33.3617 17.128 33.3603 17.046 33.3825C16.9255 33.4806 16.8337 33.5992 16.7391 33.7218C16.7118 33.7557 16.6844 33.7895 16.6571 33.8234C16.5798 33.9189 16.5033 34.0159 16.4267 34.113C15.9804 34.673 15.9804 34.673 15.5706 34.7533C15.3364 34.7715 15.1412 34.7191 14.9247 34.64L14.8406 34.6102C13.9348 34.2732 13.9348 34.2732 13.7269 33.8913C13.6119 33.6266 13.6343 33.4222 13.7338 33.1553C13.8579 32.8806 14.0493 32.636 14.2221 32.39C14.3094 32.2661 14.3956 32.1417 14.4822 32.0162C14.4502 31.9947 14.4182 31.9731 14.3854 31.95C13.6846 31.3988 13.423 30.4451 13.3155 29.6021C13.0384 27.1367 14.5208 24.5667 15.9814 22.702C15.9963 22.6817 16.0127 22.6606 16.0291 22.6396C16.1057 22.5425 16.1826 22.4443 16.2603 22.3477C17.1897 21.1817 17.3839 19.7609 17.3987 18.3009C17.4056 18.0499 17.5526 17.8767 17.7134 17.6969C17.8534 17.5723 18.039 17.5433 18.2236 17.5497C18.4605 17.5964 18.6291 17.7418 18.8111 17.8932C18.84 17.9162 18.8686 17.9404 18.8987 17.9638C19.1118 18.139 19.3215 18.3169 19.525 18.5014C19.538 18.4792 19.538 18.4792 19.551 18.4569C20.0793 17.5854 21.2714 16.4113 22.2775 16.1427C22.5036 16.0934 22.5036 16.0934 22.6206 16.099C22.7373 16.0839 22.8002 16.0217 22.8836 15.945C22.9023 15.9286 22.9193 15.9128 22.938 15.8964C23.1265 15.7251 23.3046 15.5436 23.485 15.363C24.0435 14.8043 24.5511 14.3785 25.3682 14.3297C25.4227 14.3311 25.4227 14.3311 25.4807 14.3516C25.4947 14.3373 25.5083 14.3242 25.5234 14.3104C26.2888 13.5791 27.2454 12.785 28.3415 12.7107C28.3679 12.7085 28.3942 12.7063 28.4218 12.7045C28.4462 12.7042 28.4699 12.7024 28.4943 12.702C28.5759 12.6848 28.5998 12.6498 28.6585 12.5925C28.6951 12.5683 28.7337 12.5461 28.7719 12.5251C28.8043 12.5058 28.8043 12.5058 28.8374 12.4881C28.8613 12.4748 28.8837 12.4623 28.9076 12.449C29.0668 12.3607 29.2226 12.2712 29.3758 12.1744C29.8736 11.8706 30.3803 11.6428 30.9744 11.6815C31.3742 11.796 31.6233 12.0071 31.8246 12.3713ZM30.3489 13.0919C30.1163 13.2067 29.8939 13.3328 29.6749 13.4742C29.2769 13.7313 28.8813 13.9741 28.395 13.985C27.7187 14.012 27.0797 14.6357 26.5984 15.0592C26.2203 15.39 25.8664 15.6129 25.3506 15.6096C25.0425 15.6376 24.8981 15.7708 24.6821 15.9836C24.6526 16.0128 24.6219 16.0416 24.5912 16.0704C24.4499 16.206 24.3104 16.3435 24.1709 16.481C23.315 17.3197 23.315 17.3197 22.74 17.3787C22.6996 17.3772 22.6996 17.3772 22.6588 17.3768C22.0353 17.4391 21.2841 18.3763 20.8914 18.7992C20.8727 18.8194 20.854 18.8397 20.8349 18.8611C20.5771 19.1231 20.5771 19.1231 20.4642 19.4568C20.5103 19.5256 20.5103 19.5256 20.5774 19.589C20.7261 19.744 20.8452 19.9102 20.9617 20.0909C20.9899 20.1342 20.9899 20.1342 21.0177 20.1786C21.8862 21.5581 21.9958 23.249 21.8711 24.8352C21.9838 24.8239 22.0896 24.7999 22.1996 24.771C22.2372 24.7625 22.2751 24.7529 22.3146 24.7426C22.3441 24.7351 22.3441 24.7351 22.3748 24.728C22.806 24.6195 23.2373 24.5289 23.6759 24.4575C23.7127 24.4513 23.7494 24.4451 23.7873 24.4393C25.0213 24.2321 25.0213 24.2321 25.6349 24.2483C25.6563 24.2494 25.678 24.2495 25.6994 24.2506C25.7524 24.2527 25.8061 24.2564 25.8587 24.2596C26.0547 24.2266 26.1892 23.9619 26.2973 23.8082C26.3165 23.783 26.3345 23.7574 26.3529 23.7306C26.4132 23.647 26.472 23.5641 26.5311 23.4801C26.5515 23.4515 26.5723 23.4217 26.593 23.3919C27.1154 22.6566 27.6065 21.9051 28.0904 21.1447C28.1081 21.1164 28.127 21.0885 28.145 21.0591C28.1969 20.9776 28.2472 20.8968 28.2987 20.8165C28.3136 20.7924 28.3297 20.7686 28.345 20.7433C28.538 20.4366 28.8292 19.9715 28.7582 19.5932C28.7518 19.5717 28.7442 19.5498 28.7377 19.5283C28.6743 19.2986 28.7634 19.0614 28.8663 18.8572C28.9665 18.6968 29.0875 18.5502 29.2062 18.4028C29.2527 18.3438 29.2976 18.2854 29.3437 18.2275C29.3718 18.1914 29.4011 18.1557 29.4292 18.1196C29.6151 17.8871 29.7835 17.5884 29.7643 17.2809C29.7497 17.1772 29.7237 17.0771 29.6954 16.9763C29.5552 16.4391 29.7927 15.9958 30.0498 15.5366C30.2089 15.246 30.3243 14.9414 30.4334 14.6293L30.4564 14.5645C30.7348 13.7954 30.7348 13.7954 30.7121 12.9913C30.5938 12.9495 30.4581 13.0435 30.3489 13.0919ZM18.6389 19.4331C18.6001 19.5973 18.5735 19.7593 18.5525 19.9272C18.388 21.2677 17.9302 22.3087 17.0914 23.3596C16.7266 23.8193 16.3706 24.2794 16.0597 24.7786C16.038 24.8144 16.038 24.8144 16.0149 24.851C15.7766 25.2351 15.5743 25.6371 15.3826 26.0453C15.3702 26.0729 15.3572 26.099 15.3437 26.1262C15.2086 26.4214 15.1008 26.7262 14.9925 27.0321L14.9624 27.1174C14.8103 27.5474 14.6705 27.9714 14.6062 28.4247C14.6023 28.4502 14.5995 28.4761 14.5952 28.5027C14.4936 29.264 14.5686 30.1735 15.042 30.8068C15.5302 31.3877 16.2672 31.8365 16.9917 32.0531C17.0049 32.0373 17.0182 32.0215 17.0307 32.0042C17.0498 31.9828 17.0677 31.961 17.0857 31.9392C17.1036 31.9174 17.1201 31.8963 17.138 31.8745C17.2025 31.8116 17.2593 31.7703 17.335 31.7228C17.4694 31.636 17.5685 31.5366 17.673 31.4149C17.6905 31.3942 17.7096 31.3729 17.7279 31.3499C18.5012 30.4372 19.1576 29.3666 19.6397 28.2715C19.6496 28.2507 19.6584 28.2295 19.6683 28.2087C20.3922 26.5529 20.8192 24.7268 20.6172 22.9175C20.6139 22.8907 20.6106 22.8639 20.6084 22.8376C20.494 21.8476 20.1585 20.9547 19.474 20.2199C19.459 20.2044 19.4444 20.1877 19.4298 20.171C19.0744 19.7433 19.0744 19.7433 18.6389 19.4331ZM24.8963 25.5442C24.8309 25.5518 24.7671 25.5587 24.7021 25.5651C24.2062 25.6213 23.7192 25.7063 23.2305 25.8073C23.1849 25.8168 23.1849 25.8168 23.1382 25.8258C22.7514 25.9065 22.3703 26.0034 21.9985 26.1393C21.9255 26.1647 21.9255 26.1647 21.8431 26.1842C21.7565 26.2085 21.6931 26.2322 21.6204 26.2858C21.5517 26.4112 21.5268 26.5432 21.4967 26.6823C21.4761 26.7659 21.454 26.8502 21.4323 26.9334C21.4269 26.9558 21.4215 26.9782 21.415 27.0002C21.3452 27.2737 21.2518 27.5375 21.1565 27.8033L21.13 27.8784C20.6335 29.2639 19.906 30.5935 18.9917 31.7493C18.9312 31.8226 18.9312 31.8226 18.9381 31.9224C20.7426 31.4844 21.915 30.3008 23.0963 28.9437C24.1396 27.7451 25.2595 26.6594 26.5148 25.6828C26.5786 25.6324 26.6414 25.5817 26.7038 25.5283C26.2102 25.3536 25.4064 25.4841 24.8963 25.5442ZM15.5231 32.7785C15.4597 32.8636 15.3975 32.949 15.3341 33.0341C15.3071 33.0706 15.3071 33.0706 15.2797 33.1083C15.2543 33.1441 15.2543 33.1441 15.2277 33.1795C15.2124 33.2009 15.196 33.222 15.1803 33.2446C15.14 33.2969 15.14 33.2969 15.1225 33.3573L15.3261 33.4293C15.399 33.3463 15.4723 33.2621 15.5451 33.1792L15.5966 33.1206C15.6621 33.0439 15.7124 32.9849 15.7462 32.8894C15.672 32.8529 15.5995 32.8157 15.5231 32.7785Z" fill="white"/>
<path d="M17.3998 25.1857C17.5339 25.3854 17.5975 25.5602 17.5645 25.8019C17.5292 25.8944 17.5292 25.8944 17.4771 25.9911C17.468 26.0096 17.4589 26.0282 17.4486 26.0463C17.4134 26.1132 17.3783 26.1801 17.3419 26.2466C17.2917 26.3414 17.2416 26.4363 17.1918 26.53C17.157 26.5958 17.1226 26.6604 17.0882 26.725C16.5699 27.6947 16.257 28.7677 16.5817 29.8539C16.6578 30.0946 16.7604 30.3074 16.9062 30.5139C16.9829 30.6587 16.9999 30.7915 16.9684 30.953C16.9104 31.1386 16.8328 31.2711 16.6717 31.383C16.4966 31.4657 16.3111 31.4871 16.1232 31.436C15.7535 31.2835 15.593 30.9016 15.4489 30.5564C14.9394 29.2871 15.1254 27.9581 15.6336 26.7239C15.767 26.4192 15.9231 26.1263 16.0791 25.8334C16.0965 25.8025 16.1127 25.7711 16.1289 25.7397C16.1739 25.6558 16.219 25.5719 16.2647 25.4896C16.277 25.4658 16.2904 25.4424 16.3031 25.4174C16.4146 25.2214 16.5506 25.0865 16.7672 25.0134C16.9933 24.9782 17.2157 25.0515 17.3998 25.1857Z" fill="white"/>
<path d="M25.5794 18.5327C25.7175 18.7466 25.8244 18.9546 25.7692 19.2153C25.7075 19.4225 25.6089 19.5566 25.4185 19.6607C25.2504 19.7343 25.105 19.7546 24.9276 19.6918C24.7728 19.623 24.6476 19.5391 24.5654 19.3845C24.4844 19.2804 24.3763 19.2243 24.2654 19.1543C24.072 19.0283 23.9175 18.9187 23.8481 18.6881C23.8089 18.495 23.8477 18.3347 23.9371 18.1616C24.0541 18.0008 24.2079 17.9132 24.4007 17.8675C24.8023 17.8393 25.3389 18.2249 25.5794 18.5327Z" fill="white"/>
<path d="M28.7904 14.9222C28.8386 14.9559 28.8386 14.9559 28.888 14.99C29.1459 15.1759 29.3416 15.3462 29.4083 15.668C29.4178 15.8364 29.3408 16.0178 29.2441 16.1538C29.1076 16.2936 28.9622 16.3574 28.7665 16.3751C28.5617 16.35 28.4078 16.2713 28.2409 16.1534C28.2247 16.1413 28.2074 16.1288 28.189 16.1158C28.1532 16.0904 28.1174 16.0649 28.082 16.0383C28.0266 15.9995 27.9724 15.9612 27.917 15.9224C27.5106 15.6314 27.5106 15.6314 27.41 15.3911C27.3722 15.1615 27.41 14.9714 27.5452 14.7774C27.6698 14.6423 27.8192 14.5889 27.998 14.5536C28.3043 14.5596 28.5524 14.7484 28.7904 14.9222Z" fill="white"/>
<path d="M26.2677 22.0534C26.2873 22.0705 26.3064 22.0888 26.3259 22.106C26.4861 22.2573 26.5706 22.4164 26.5921 22.6377C26.5583 22.8779 26.4761 23.0344 26.2868 23.1862C26.1207 23.2721 25.9519 23.3007 25.7675 23.2649C25.5937 23.1919 25.4661 23.0968 25.328 22.9699C25.3006 22.9462 25.3006 22.9462 25.272 22.922C25.1335 22.7962 25.024 22.6717 24.9789 22.4843C24.9716 22.2808 24.9958 22.1218 25.1179 21.9538C25.2711 21.7994 25.414 21.7246 25.6307 21.709C25.8855 21.7121 26.093 21.8854 26.2677 22.0534Z" fill="white"/>
</svg>
