<svg width="64" height="64" viewBox="0 0 64 64" fill="none" xmlns="http://www.w3.org/2000/svg">
<rect width="64" height="64" rx="32" fill="#D50D0D"/>
<path d="M36.3337 41.75V39.5833C36.3337 38.4341 35.8771 37.3319 35.0645 36.5192C34.2518 35.7065 33.1496 35.25 32.0003 35.25H25.5003C24.3511 35.25 23.2489 35.7065 22.4362 36.5192C21.6235 37.3319 21.167 38.4341 21.167 39.5833V41.75" stroke="white" stroke-width="2" stroke-linecap="round" stroke-linejoin="round"/>
<path d="M28.7503 30.9167C31.1436 30.9167 33.0837 28.9766 33.0837 26.5833C33.0837 24.1901 31.1436 22.25 28.7503 22.25C26.3571 22.25 24.417 24.1901 24.417 26.5833C24.417 28.9766 26.3571 30.9167 28.7503 30.9167Z" stroke="white" stroke-width="2" stroke-linecap="round" stroke-linejoin="round"/>
<path d="M42.833 41.75V39.5834C42.8323 38.6232 42.5127 37.6905 41.9245 36.9317C41.3362 36.1729 40.5126 35.6309 39.583 35.3909" stroke="white" stroke-width="2" stroke-linecap="round" stroke-linejoin="round"/>
<path d="M36.333 22.3909C37.2651 22.6295 38.0913 23.1716 38.6813 23.9317C39.2713 24.6918 39.5915 25.6266 39.5915 26.5888C39.5915 27.551 39.2713 28.4858 38.6813 29.2459C38.0913 30.0059 37.2651 30.548 36.333 30.7867" stroke="white" stroke-width="2" stroke-linecap="round" stroke-linejoin="round"/>
</svg>
