<svg width="45" height="46" viewBox="0 0 45 46" fill="none" xmlns="http://www.w3.org/2000/svg">
<rect y="0.5" width="45" height="45" rx="22.5" fill="#D50D0D"/>
<path d="M22.0267 31.0526C20.3631 31.0576 18.7585 30.4373 17.531 29.3146C16.3034 28.1918 15.5427 26.6488 15.3996 24.9914C15.2565 23.3341 15.7415 21.6835 16.7585 20.367C17.7755 19.0505 19.2501 18.1643 20.8898 17.8842C26.2898 16.8421 27.7109 16.3495 29.6056 14C30.5529 15.8947 31.5003 17.96 31.5003 21.5789C31.5003 26.7894 26.9719 31.0526 22.0267 31.0526Z" stroke="white" stroke-width="2" stroke-linecap="round" stroke-linejoin="round"/>
<path d="M13.5 31.9999C13.5 29.1578 15.2526 26.922 18.3126 26.3157C20.6052 25.861 22.9737 24.421 23.921 23.4736" stroke="white" stroke-width="2" stroke-linecap="round" stroke-linejoin="round"/>
</svg>
