<svg width="65" height="64" viewBox="0 0 65 64" fill="none" xmlns="http://www.w3.org/2000/svg">
<rect x="0.5" width="64" height="64" rx="32" fill="#D50D0D"/>
<path d="M35.333 39.0001V25.0001C35.333 24.3812 35.0872 23.7878 34.6496 23.3502C34.212 22.9126 33.6185 22.6667 32.9997 22.6667H23.6663C23.0475 22.6667 22.454 22.9126 22.0164 23.3502C21.5788 23.7878 21.333 24.3812 21.333 25.0001V37.8334C21.333 38.1428 21.4559 38.4396 21.6747 38.6584C21.8935 38.8772 22.1903 39.0001 22.4997 39.0001H24.833" stroke="white" stroke-width="2" stroke-linecap="round" stroke-linejoin="round"/>
<path d="M36.5 39H29.5" stroke="white" stroke-width="2" stroke-linecap="round" stroke-linejoin="round"/>
<path d="M41.1663 38.9999H43.4997C43.8091 38.9999 44.1058 38.877 44.3246 38.6582C44.5434 38.4394 44.6663 38.1427 44.6663 37.8333V33.5749C44.6659 33.3102 44.5754 33.0534 44.4097 32.8469L40.3497 27.7719C40.2406 27.6353 40.1021 27.5249 39.9446 27.449C39.7871 27.3731 39.6145 27.3335 39.4397 27.3333H35.333" stroke="white" stroke-width="2" stroke-linecap="round" stroke-linejoin="round"/>
<path d="M38.8333 41.3334C40.122 41.3334 41.1667 40.2887 41.1667 39.0001C41.1667 37.7114 40.122 36.6667 38.8333 36.6667C37.5447 36.6667 36.5 37.7114 36.5 39.0001C36.5 40.2887 37.5447 41.3334 38.8333 41.3334Z" stroke="white" stroke-width="2" stroke-linecap="round" stroke-linejoin="round"/>
<path d="M27.1663 41.3334C28.455 41.3334 29.4997 40.2887 29.4997 39.0001C29.4997 37.7114 28.455 36.6667 27.1663 36.6667C25.8777 36.6667 24.833 37.7114 24.833 39.0001C24.833 40.2887 25.8777 41.3334 27.1663 41.3334Z" stroke="white" stroke-width="2" stroke-linecap="round" stroke-linejoin="round"/>
</svg>
