<svg width="64" height="64" viewBox="0 0 64 64" fill="none" xmlns="http://www.w3.org/2000/svg">
<rect width="64" height="64" rx="32" fill="#D50D0D"/>
<path d="M31.9998 45.3334C39.3636 45.3334 45.3332 39.3639 45.3332 32.0001C45.3332 24.6363 39.3636 18.6667 31.9998 18.6667C24.636 18.6667 18.6665 24.6363 18.6665 32.0001C18.6665 39.3639 24.636 45.3334 31.9998 45.3334Z" stroke="white" stroke-width="2.66667" stroke-linecap="round" stroke-linejoin="round"/>
<path d="M31.9998 18.6667C28.5761 22.2616 26.6665 27.0357 26.6665 32.0001C26.6665 36.9644 28.5761 41.7385 31.9998 45.3334C35.4235 41.7385 37.3332 36.9644 37.3332 32.0001C37.3332 27.0357 35.4235 22.2616 31.9998 18.6667Z" stroke="white" stroke-width="2.66667" stroke-linecap="round" stroke-linejoin="round"/>
<path d="M18.6665 32H45.3332" stroke="white" stroke-width="2.66667" stroke-linecap="round" stroke-linejoin="round"/>
</svg>
