<svg width="24" height="25" viewBox="0 0 24 25" fill="none" xmlns="http://www.w3.org/2000/svg">
<path d="M13.4592 0.868164C14.7676 0.871653 15.4318 0.878632 16.0052 0.894916L16.2308 0.903058C16.4914 0.912363 16.7484 0.923994 17.0589 0.937952C18.2965 0.996108 19.1409 1.19151 19.8818 1.47881C20.6494 1.77424 21.2961 2.17436 21.9428 2.8199C22.5345 3.40115 22.9921 4.10454 23.2839 4.88096C23.5711 5.62188 23.7665 6.46631 23.8247 7.70504C23.8387 8.01443 23.8503 8.27149 23.8596 8.53319L23.8666 8.75884C23.884 9.3311 23.891 9.99524 23.8933 11.3038L23.8945 12.1715V13.6952C23.8973 14.5436 23.8884 15.3919 23.8677 16.2401L23.8608 16.4657C23.8514 16.7274 23.8398 16.9845 23.8259 17.2939C23.7677 18.5326 23.57 19.3759 23.2839 20.118C22.9921 20.8944 22.5345 21.5978 21.9428 22.179C21.3616 22.7707 20.6582 23.2284 19.8818 23.5201C19.1409 23.8074 18.2965 24.0028 17.0589 24.061L16.2308 24.0959L16.0052 24.1028C15.4318 24.1191 14.7676 24.1273 13.4592 24.1296L12.5915 24.1308H11.069C10.2202 24.1338 9.37147 24.1248 8.52296 24.104L8.29732 24.097C8.02121 24.0866 7.74517 24.0746 7.46919 24.061C6.23166 24.0028 5.38725 23.8074 4.64519 23.5201C3.8692 23.2282 3.16624 22.7706 2.58534 22.179C1.99326 21.5979 1.53519 20.8945 1.24312 20.118C0.955839 19.377 0.760438 18.5326 0.702283 17.2939L0.66739 16.4657L0.661575 16.2401C0.640135 15.392 0.630441 14.5436 0.632498 13.6952V11.3038C0.629278 10.4554 0.637808 9.60699 0.658086 8.75884L0.666227 8.53319C0.675532 8.27149 0.687163 8.01443 0.70112 7.70504C0.759275 6.46631 0.954676 5.62304 1.24196 4.88096C1.53471 4.10422 1.99358 3.4008 2.5865 2.8199C3.16707 2.2285 3.86962 1.77084 4.64519 1.47881C5.38725 1.19151 6.23049 0.996108 7.46919 0.937952C7.77858 0.923994 8.03679 0.912363 8.29732 0.903058L8.52296 0.896079C9.37109 0.875414 10.2195 0.866495 11.0678 0.869327L13.4592 0.868164ZM12.2635 6.68381C10.7211 6.68381 9.24193 7.29653 8.15131 8.38718C7.0607 9.47782 6.44799 10.9571 6.44799 12.4995C6.44799 14.0419 7.0607 15.5211 8.15131 16.6117C9.24193 17.7024 10.7211 18.3151 12.2635 18.3151C13.8059 18.3151 15.285 17.7024 16.3757 16.6117C17.4663 15.5211 18.079 14.0419 18.079 12.4995C18.079 10.9571 17.4663 9.47782 16.3757 8.38718C15.285 7.29653 13.8059 6.68381 12.2635 6.68381ZM12.2635 9.01007C12.7217 9.01 13.1755 9.10018 13.5988 9.27546C14.0222 9.45075 14.4069 9.70772 14.731 10.0317C15.055 10.3556 15.3121 10.7403 15.4875 11.1636C15.663 11.5869 15.7533 12.0406 15.7534 12.4989C15.7534 12.9571 15.6633 13.4109 15.488 13.8343C15.3127 14.2576 15.0557 14.6423 14.7318 14.9664C14.4078 15.2905 14.0232 15.5476 13.5999 15.723C13.1766 15.8984 12.7229 15.9888 12.2647 15.9889C11.3392 15.9889 10.4517 15.6212 9.79735 14.9668C9.14298 14.3124 8.77536 13.4249 8.77536 12.4995C8.77536 11.574 9.14298 10.6865 9.79735 10.0321C10.4517 9.3777 11.3392 9.01007 12.2647 9.01007M18.3709 4.93912C17.9853 4.93912 17.6155 5.0923 17.3429 5.36496C17.0702 5.63762 16.917 6.00743 16.917 6.39303C16.917 6.77863 17.0702 7.14844 17.3429 7.4211C17.6155 7.69376 17.9853 7.84694 18.3709 7.84694C18.7565 7.84694 19.1263 7.69376 19.399 7.4211C19.6716 7.14844 19.8248 6.77863 19.8248 6.39303C19.8248 6.00743 19.6716 5.63762 19.399 5.36496C19.1263 5.0923 18.7565 4.93912 18.3709 4.93912Z" fill="white"/>
</svg>
