<svg width="65" height="64" viewBox="0 0 65 64" fill="none" xmlns="http://www.w3.org/2000/svg">
<rect x="0.5" width="64" height="64" rx="32" fill="#D50D0D"/>
<path d="M31.6665 38.6666L34.3332 41.3333C34.5958 41.5959 34.9076 41.8042 35.2508 41.9464C35.5939 42.0885 35.9617 42.1617 36.3332 42.1617C36.7046 42.1617 37.0724 42.0885 37.4156 41.9464C37.7587 41.8042 38.0705 41.5959 38.3332 41.3333C38.5958 41.0706 38.8042 40.7588 38.9463 40.4156C39.0884 40.0725 39.1616 39.7047 39.1616 39.3333C39.1616 38.9618 39.0884 38.594 38.9463 38.2509C38.8042 37.9077 38.5958 37.5959 38.3332 37.3333" stroke="white" stroke-width="2.66667" stroke-linecap="round" stroke-linejoin="round"/>
<path d="M35.6665 34.6666L38.9998 37.9999C39.5302 38.5304 40.2497 38.8284 40.9998 38.8284C41.75 38.8284 42.4694 38.5304 42.9998 37.9999C43.5302 37.4695 43.8282 36.7501 43.8282 35.9999C43.8282 35.2498 43.5302 34.5304 42.9998 33.9999L37.8265 28.8266C37.0765 28.0775 36.0598 27.6568 34.9998 27.6568C33.9398 27.6568 32.9231 28.0775 32.1731 28.8266L30.9998 29.9999C30.4694 30.5304 29.75 30.8284 28.9998 30.8284C28.2497 30.8284 27.5302 30.5304 26.9998 29.9999C26.4694 29.4695 26.1714 28.7501 26.1714 27.9999C26.1714 27.2498 26.4694 26.5304 26.9998 25.9999L30.7465 22.2533C31.9628 21.0401 33.549 20.2673 35.254 20.0572C36.959 19.8471 38.6854 20.2117 40.1598 21.0933L40.7865 21.4666C41.3542 21.8093 42.0292 21.9281 42.6798 21.7999L44.9998 21.3333" stroke="white" stroke-width="2.66667" stroke-linecap="round" stroke-linejoin="round"/>
<path d="M44.9998 20L46.3332 34.6667H43.6665" stroke="white" stroke-width="2.66667" stroke-linecap="round" stroke-linejoin="round"/>
<path d="M20.9998 20L19.6665 34.6667L28.3332 43.3333C28.8636 43.8638 29.583 44.1618 30.3332 44.1618C31.0833 44.1618 31.8027 43.8638 32.3332 43.3333C32.8636 42.8029 33.1616 42.0835 33.1616 41.3333C33.1616 40.5832 32.8636 39.8638 32.3332 39.3333" stroke="white" stroke-width="2.66667" stroke-linecap="round" stroke-linejoin="round"/>
<path d="M21 21.3333H31.6667" stroke="white" stroke-width="2.66667" stroke-linecap="round" stroke-linejoin="round"/>
</svg>
