<svg width="64" height="64" viewBox="0 0 64 64" fill="none" xmlns="http://www.w3.org/2000/svg">
<rect width="64" height="64" rx="32" fill="#D50D0D"/>
<path d="M36.1219 32.427L37.7 41.3083C37.7177 41.4128 37.703 41.5203 37.6579 41.6163C37.6129 41.7123 37.5396 41.7923 37.4478 41.8455C37.3561 41.8988 37.2503 41.9227 37.1446 41.9142C37.0389 41.9057 36.9383 41.8651 36.8562 41.7978L33.1271 38.9989C32.947 38.8644 32.7283 38.7917 32.5036 38.7917C32.2789 38.7917 32.0602 38.8644 31.8802 38.9989L28.1448 41.7968C28.0628 41.8639 27.9623 41.9044 27.8568 41.913C27.7512 41.9215 27.6455 41.8977 27.5538 41.8446C27.4621 41.7915 27.3888 41.7117 27.3437 41.6159C27.2985 41.5201 27.2836 41.4127 27.301 41.3083L28.8781 32.427" stroke="white" stroke-width="2" stroke-linecap="round" stroke-linejoin="round"/>
<path d="M32.5 33.5833C35.9518 33.5833 38.75 30.785 38.75 27.3333C38.75 23.8815 35.9518 21.0833 32.5 21.0833C29.0482 21.0833 26.25 23.8815 26.25 27.3333C26.25 30.785 29.0482 33.5833 32.5 33.5833Z" stroke="white" stroke-width="2" stroke-linecap="round" stroke-linejoin="round"/>
</svg>
