<svg width="65" height="64" viewBox="0 0 65 64" fill="none" xmlns="http://www.w3.org/2000/svg">
<rect x="0.5" width="64" height="64" rx="32" fill="#D50D0D"/>
<path d="M25.9165 43.3333H40.0832" stroke="white" stroke-width="2.66667" stroke-linecap="round" stroke-linejoin="round"/>
<path d="M30.1665 43.3334C37.9582 39.7917 31.2998 34.2667 34.4165 29.1667" stroke="white" stroke-width="2.66667" stroke-linecap="round" stroke-linejoin="round"/>
<path d="M29.4582 28.3166C31.0165 29.4499 32.0082 31.4333 32.7165 33.5583C29.8832 34.1249 27.7582 34.1249 25.9165 33.1333C24.2165 32.2833 22.6582 30.4416 21.6665 27.1833C25.6332 26.4749 27.8998 27.1833 29.4582 28.3166Z" stroke="white" stroke-width="2.66667" stroke-linecap="round" stroke-linejoin="round"/>
<path d="M35.9752 23.5001C34.8951 25.1881 34.3518 27.1638 34.4169 29.1667C37.1085 29.0251 39.0919 28.3167 40.5085 27.1834C41.9252 25.7667 42.7752 23.9251 42.9169 20.6667C39.0919 20.8084 37.2502 22.0834 35.9752 23.5001Z" stroke="white" stroke-width="2.66667" stroke-linecap="round" stroke-linejoin="round"/>
</svg>
