<svg width="27" height="27" viewBox="0 0 27 27" fill="none" xmlns="http://www.w3.org/2000/svg">
<path d="M14.0012 2.32471C20.2993 2.32471 25.4047 7.17479 25.4047 13.158C25.4047 19.1413 20.2993 23.9914 14.0012 23.9914C11.9859 23.9947 10.0061 23.488 8.26522 22.5235L2.60224 23.9914L4.14399 18.6094C3.12789 16.955 2.59414 15.0734 2.59767 13.158C2.59767 7.17479 7.70303 2.32471 14.0012 2.32471ZM10.1149 8.06637L9.8868 8.07504C9.73934 8.08469 9.59526 8.12149 9.46259 8.18337C9.33894 8.25001 9.22603 8.3332 9.12732 8.43037C8.99048 8.55279 8.91294 8.65896 8.82969 8.76187C8.4079 9.28285 8.1808 9.92246 8.18425 10.5797C8.18653 11.1105 8.3325 11.6273 8.56057 12.1105C9.02697 13.0876 9.79443 14.1222 10.8071 15.081C11.0511 15.3117 11.2906 15.5435 11.5483 15.7591C12.8066 16.8115 14.306 17.5704 15.9272 17.9756L16.575 18.0699C16.7859 18.0807 16.9969 18.0655 17.209 18.0558C17.541 18.0392 17.8653 17.9537 18.1589 17.8055C18.3081 17.7322 18.4538 17.6527 18.5957 17.5672C18.5957 17.5672 18.6439 17.5362 18.7382 17.4697C18.8921 17.3614 18.9868 17.2845 19.1145 17.1577C19.2103 17.0638 19.2901 16.9548 19.354 16.8305C19.4429 16.654 19.5319 16.317 19.5684 16.0365C19.5957 15.822 19.5878 15.705 19.5843 15.6324C19.5798 15.5165 19.4783 15.3962 19.3677 15.3453L18.704 15.0625C18.704 15.0625 17.7119 14.652 17.1052 14.3898C17.0417 14.3635 16.9737 14.3485 16.9045 14.3454C16.8265 14.3376 16.7476 14.3459 16.6732 14.3696C16.5989 14.3934 16.5307 14.432 16.4735 14.483C16.4678 14.4808 16.3914 14.5425 15.5669 15.4915C15.5196 15.5519 15.4544 15.5976 15.3796 15.6227C15.3049 15.6478 15.224 15.6511 15.1472 15.6324C15.0729 15.6136 15.0001 15.5897 14.9294 15.5609C14.788 15.5045 14.739 15.4829 14.6421 15.4439C13.9874 15.1729 13.3813 14.8063 12.846 14.3573C12.7023 14.2381 12.5689 14.1081 12.4321 13.9825C11.9835 13.5743 11.5925 13.1125 11.2689 12.6088L11.2016 12.5059C11.154 12.4363 11.115 12.3618 11.0853 12.2838C11.042 12.1245 11.1549 11.9967 11.1549 11.9967C11.1549 11.9967 11.432 11.7085 11.5608 11.5525C11.6863 11.4009 11.7923 11.2535 11.8607 11.1485C11.9953 10.9426 12.0375 10.7314 11.9668 10.5678C11.6475 9.82679 11.3176 9.08976 10.977 8.35671C10.9097 8.21154 10.7101 8.10754 10.5288 8.08696C10.4672 8.07973 10.4057 8.07396 10.3441 8.06962C10.191 8.06128 10.0374 8.06273 9.88452 8.07396L10.1149 8.06637Z" fill="white"/>
</svg>
