<svg width="45" height="46" viewBox="0 0 45 46" fill="none" xmlns="http://www.w3.org/2000/svg">
<rect y="0.5" width="45" height="45" rx="22.5" fill="#D50D0D"/>
<path d="M25.7256 15.8767C25.4243 15.7404 25.069 15.8742 24.9326 16.1755L15.6956 36.5817C15.5592 36.8829 15.6931 37.2383 15.9944 37.3746C16.2956 37.511 16.651 37.3771 16.7873 37.0759L26.0244 16.6697C26.1607 16.3685 26.0268 16.0131 25.7256 15.8767Z" fill="white"/>
<path d="M19.092 20.8936C18.7439 20.7244 18.3751 20.5974 17.9946 20.5184C17.7667 20.4702 17.5332 20.5593 17.393 20.744C16.4572 21.9872 16.1597 23.6708 16.7474 25.2307C17.3351 26.7905 18.6697 27.8592 20.1911 28.1766L20.1905 28.178C20.4191 28.2248 20.652 28.1371 20.7928 27.951C21.7285 26.7078 22.0247 25.0235 21.437 23.4637C20.9974 22.294 20.136 21.4012 19.092 20.8936ZM18.568 21.9702C19.3463 22.3475 19.9856 23.0099 20.3162 23.8871C20.7059 24.9244 20.5757 26.0211 20.0551 26.9027C19.0841 26.5831 18.2614 25.8477 17.8704 24.8098C17.4801 23.774 17.6135 22.6771 18.1342 21.7955C18.2834 21.8447 18.4289 21.9022 18.5693 21.9708L18.568 21.9702Z" fill="white"/>
<path d="M16.9216 25.6888C16.5735 25.5196 16.2047 25.3926 15.8242 25.3136C15.5956 25.2667 15.3627 25.3545 15.2219 25.5405C14.2862 26.7837 13.9886 28.4674 14.5764 30.0272C15.1641 31.5871 16.4987 32.6557 18.0201 32.9731C18.2487 33.02 18.4816 32.9322 18.6218 32.7476C19.5575 31.5043 19.8537 29.8201 19.2659 28.2602C18.8263 27.0905 17.965 26.1977 16.9209 25.6901L16.9216 25.6888ZM16.3976 26.7654C17.1759 27.1427 17.8152 27.805 18.1458 28.6823C18.5354 29.7195 18.4053 30.8163 17.8847 31.6979C16.9137 31.3783 16.091 30.6429 15.6999 29.605C15.3096 28.5691 15.4431 27.4723 15.9638 26.5906C16.113 26.6399 16.2585 26.6974 16.3989 26.766L16.3976 26.7654Z" fill="white"/>
<path d="M21.2633 16.0967C20.9153 15.9275 20.5465 15.8006 20.166 15.7215L20.1654 15.7229C19.9374 15.6747 19.7039 15.7638 19.5637 15.9485C18.628 17.1917 18.3304 18.8753 18.9182 20.4352C19.5059 21.995 20.8405 23.0637 22.3619 23.3811C22.5898 23.4293 22.8234 23.3402 22.9635 23.1555C23.8993 21.9123 24.1955 20.228 23.6077 18.6682C23.1681 17.4985 22.3068 16.6057 21.2627 16.0981L21.2633 16.0967ZM20.7394 17.1733C21.5177 17.5506 22.157 18.213 22.4876 19.0903C22.8772 20.1275 22.7471 21.2242 22.2265 22.1059C21.2555 21.7862 20.4328 21.0508 20.0417 20.013C19.6514 18.9771 19.7849 17.8802 20.305 17C20.4542 17.0492 20.5997 17.1067 20.7401 17.1753L20.7394 17.1733Z" fill="white"/>
<path d="M23.4342 11.3011C23.0862 11.1319 22.7174 11.0049 22.3369 10.9259C22.1083 10.879 21.8754 10.9668 21.7346 11.1528C20.7989 12.3961 20.5013 14.0797 21.0891 15.6395C21.6768 17.1994 23.0114 18.268 24.5328 18.5854C24.7607 18.6336 24.9943 18.5445 25.1344 18.3599C26.0702 17.1166 26.3664 15.4324 25.7786 13.8725C25.339 12.7028 24.4777 11.81 23.4336 11.3024L23.4342 11.3011ZM22.9103 12.3777C23.6886 12.755 24.3279 13.4173 24.6585 14.2946C25.0481 15.3318 24.918 16.4286 24.3974 17.3102C23.4264 16.9906 22.603 16.2532 22.2126 15.2173C21.8223 14.1814 21.9558 13.0846 22.4759 12.2043C22.6251 12.2536 22.7705 12.3111 22.911 12.3797L22.9103 12.3777Z" fill="white"/>
<path d="M29.008 8.6276C28.9044 8.58068 28.789 8.56341 28.6769 8.57928C27.1361 8.79762 25.7353 9.77706 25.0477 11.296C24.3602 12.8148 24.5487 14.5136 25.4 15.8149C25.5269 16.0089 25.755 16.1121 25.9845 16.0795C27.5253 15.8612 28.9254 14.8797 29.6128 13.3611C30.2997 11.8437 30.1132 10.1442 29.2613 8.84424C29.1993 8.74955 29.1121 8.67348 29.0085 8.62657L29.008 8.6276ZM28.4569 9.84511C28.9178 10.7581 28.9787 11.8597 28.522 12.8685C28.0648 13.8787 27.1969 14.5599 26.2054 14.8154C25.7445 13.9024 25.6829 12.7988 26.1395 11.79C26.5962 10.7812 27.466 10.0992 28.4575 9.84373L28.4569 9.84511Z" fill="white"/>
<path d="M26.333 24.1712C25.2627 23.7217 24.0229 23.665 22.8545 24.1052C21.2946 24.693 20.2246 26.0269 19.9079 27.5504C19.8597 27.7783 19.9488 28.0118 20.1335 28.152C21.3773 29.0864 23.0596 29.3833 24.618 28.7949C26.1778 28.2072 27.2479 26.8733 27.5645 25.3498L27.5665 25.349C27.6127 25.1218 27.5256 24.8876 27.339 24.7481C27.0285 24.5144 26.6898 24.3211 26.333 24.1712ZM25.8699 25.2753C26.0141 25.3356 26.1533 25.407 26.2887 25.4866C25.9699 26.4596 25.2331 27.2816 24.1966 27.6733L24.198 27.674C23.1621 28.0643 22.066 27.9328 21.1851 27.4141C21.504 26.4412 22.2422 25.6197 23.2787 25.228C24.1559 24.8975 25.0755 24.9407 25.8726 25.2766L25.8699 25.2753Z" fill="white"/>
<path d="M24.1626 28.9664C23.0923 28.5168 21.8525 28.4602 20.684 28.9004C19.1242 29.4881 18.0541 30.8221 17.7375 32.3456L17.7369 32.3469C17.6893 32.5735 17.7778 32.8084 17.9631 32.9472C19.2069 33.8816 20.8892 34.1785 22.4476 33.5901C24.0074 33.0024 25.0775 31.6684 25.3941 30.1449L25.3955 30.1456C25.4423 29.917 25.3546 29.6841 25.1685 29.5433C24.8581 29.3095 24.5194 29.1162 24.1626 28.9664ZM23.6994 30.0705C23.8437 30.1308 23.9829 30.2021 24.1183 30.2817C23.7995 31.2547 23.0627 32.0768 22.0262 32.4685L22.0276 32.4691C20.9917 32.8594 19.8956 32.7279 19.0147 32.2093C19.3336 31.2363 20.0718 30.4149 21.1083 30.0232C21.9855 29.6926 22.9051 29.7359 23.7022 30.0717L23.6994 30.0705Z" fill="white"/>
<path d="M28.5045 19.3744C27.4342 18.9249 26.1944 18.8682 25.026 19.3084C23.4661 19.8962 22.3961 21.2301 22.0794 22.7536L22.0788 22.755C22.0312 22.9815 22.1197 23.2164 22.305 23.3552C23.5489 24.2896 25.2311 24.5865 26.7895 23.9981C28.3494 23.4104 29.4194 22.0765 29.736 20.553L29.7374 20.5536C29.7836 20.3264 29.6965 20.0922 29.5099 19.9527C29.1994 19.7189 28.8606 19.5256 28.5038 19.3758L28.5045 19.3744ZM28.0414 20.4785C28.1856 20.5388 28.3248 20.6102 28.4603 20.6898C28.1414 21.6628 27.4046 22.4848 26.3687 22.8752L26.3695 22.8772C25.3336 23.2675 24.2375 23.136 23.3567 22.6173C23.6755 21.6444 24.4137 20.8229 25.4502 20.4312C26.3275 20.1007 27.247 20.1439 28.0441 20.4798L28.0414 20.4785Z" fill="white"/>
<path d="M30.6753 14.5789C29.605 14.1294 28.3651 14.0727 27.1967 14.5129C25.6369 15.1007 24.5668 16.4346 24.2502 17.9581L24.2496 17.9595C24.202 18.186 24.2905 18.4209 24.4758 18.5597C25.7196 19.4941 27.4019 19.791 28.9603 19.2027C30.5201 18.6149 31.5902 17.281 31.9068 15.7575L31.9082 15.7581C31.955 15.5296 31.8673 15.2967 31.6812 15.1558C31.3708 14.9221 31.0321 14.7288 30.6753 14.5789ZM30.2121 15.683C30.3564 15.7433 30.4956 15.8147 30.631 15.8943C30.3122 16.8673 29.5754 17.6893 28.5389 18.081L28.5403 18.0817C27.5044 18.472 26.4083 18.3405 25.5274 17.8218C25.8463 16.8489 26.5844 16.0274 27.6209 15.6357C28.4982 15.3052 29.4178 15.3484 30.2149 15.6843L30.2121 15.683Z" fill="white"/>
</svg>
